HIERARCHY
ROOT Hips
{
  OFFSET 0.0 0.0 0.0
  CHANNELS 6 XPOSITION YPOSITION ZPOSITION ZROTATION XROTATION YROTATION 
  JOINT CUBE
  {
    OFFSET 0.0 0.118905 0.0
    CHANNELS 3 ZROTATION XROTATION YROTATION 
    End Site
    {
      OFFSET -0.0029 0.127742 0.0251395
    }
  }
}
MOTION
Frames: 40
Frame Time: 0.033333
0 0 0 0 0 0 0 0 0.2
0 0 0 0 0 0 0 0 0.4
0 0 0 0 0 0 0 0 0.6
0 0 0 0 0 0 0 0 0.8
0 0 0 0 0 0 0 0 1.0
0 0 0 0 0 0 0 0 1.2
0 0 0 0 0 0 0 0 1.4
0 0 0 0 0 0 0 0 1.6
0 0 0 0 0 0 0 0 1.8
0 0 0 0 0 0 0 0 2.0
0 0 0 0 0 0 0 0 1.8
0 0 0 0 0 0 0 0 1.6
0 0 0 0 0 0 0 0 1.4
0 0 0 0 0 0 0 0 1.2
0 0 0 0 0 0 0 0 1.0
0 0 0 0 0 0 0 0 0.8
0 0 0 0 0 0 0 0 0.6
0 0 0 0 0 0 0 0 0.4
0 0 0 0 0 0 0 0 0.2
0 0 0 0 0 0 0 0 0.0
0 0 0 0 0 0 0 0 -0.2
0 0 0 0 0 0 0 0 -0.4
0 0 0 0 0 0 0 0 -0.6
0 0 0 0 0 0 0 0 -0.8
0 0 0 0 0 0 0 0 -1.0
0 0 0 0 0 0 0 0 -1.2
0 0 0 0 0 0 0 0 -1.4
0 0 0 0 0 0 0 0 -1.6
0 0 0 0 0 0 0 0 -1.8
0 0 0 0 0 0 0 0 -2.0
0 0 0 0 0 0 0 0 -1.8
0 0 0 0 0 0 0 0 -1.6
0 0 0 0 0 0 0 0 -1.4
0 0 0 0 0 0 0 0 -1.2
0 0 0 0 0 0 0 0 -1.0
0 0 0 0 0 0 0 0 -0.8
0 0 0 0 0 0 0 0 -0.6
0 0 0 0 0 0 0 0 -0.4
0 0 0 0 0 0 0 0 -0.2
0 0 0 0 0 0 0 0 0
